<svg width="16" height="16" viewBox="0 0 16 16" fill="none" xmlns="http://www.w3.org/2000/svg">
<path fill-rule="evenodd" clip-rule="evenodd" d="M1.33332 14.3999C1.66666 14.5999 1.99999 14.6666 2.33332 14.6666H13.6667C14.2 14.6666 14.6667 14.4666 15 14.0666C15.4 13.7333 15.6 13.1999 15.6 12.6666C15.6 12.3333 15.5333 11.9999 15.3333 11.6666L9.73333 2.2666C9.39999 1.79993 8.99999 1.4666 8.46666 1.33327C7.93333 1.19993 7.39999 1.2666 6.93332 1.53327C6.66666 1.6666 6.39999 1.93327 6.26666 2.19993L0.599991 11.6666C0.066658 12.5999 0.399991 13.8666 1.33332 14.3999ZM1.8 12.3333L7.39999 2.93327C7.46666 2.79994 7.53333 2.73327 7.66666 2.6666C8 2.53327 8.4 2.59994 8.59999 2.93327L14.2 12.3333C14.2667 12.4666 14.2667 12.5333 14.2667 12.6666C14.2667 12.8666 14.2 12.9999 14.0667 13.1333C13.9333 13.2666 13.8 13.3333 13.6 13.3333H2.33333C2.26666 13.3333 2.13333 13.3333 2.06666 13.2666C1.73333 13.0666 1.6 12.6666 1.8 12.3333ZM8.66665 8.66661V5.99994C8.66665 5.59994 8.39999 5.33328 7.99999 5.33328C7.59999 5.33328 7.33332 5.59994 7.33332 5.99994V8.66661C7.33332 9.06661 7.59999 9.33328 7.99999 9.33328C8.39999 9.33328 8.66665 9.06661 8.66665 8.66661ZM7.99999 11.9999C8.36818 11.9999 8.66665 11.7015 8.66665 11.3333C8.66665 10.9651 8.36818 10.6666 7.99999 10.6666C7.6318 10.6666 7.33332 10.9651 7.33332 11.3333C7.33332 11.7015 7.6318 11.9999 7.99999 11.9999Z" fill="black"/>
<mask id="mask0" mask-type="alpha" maskUnits="userSpaceOnUse" x="0" y="1" width="16" height="14">
<path fill-rule="evenodd" clip-rule="evenodd" d="M1.33332 14.3999C1.66666 14.5999 1.99999 14.6666 2.33332 14.6666H13.6667C14.2 14.6666 14.6667 14.4666 15 14.0666C15.4 13.7333 15.6 13.1999 15.6 12.6666C15.6 12.3333 15.5333 11.9999 15.3333 11.6666L9.73333 2.2666C9.39999 1.79993 8.99999 1.4666 8.46666 1.33327C7.93333 1.19993 7.39999 1.2666 6.93332 1.53327C6.66666 1.6666 6.39999 1.93327 6.26666 2.19993L0.599991 11.6666C0.066658 12.5999 0.399991 13.8666 1.33332 14.3999ZM1.8 12.3333L7.39999 2.93327C7.46666 2.79994 7.53333 2.73327 7.66666 2.6666C8 2.53327 8.4 2.59994 8.59999 2.93327L14.2 12.3333C14.2667 12.4666 14.2667 12.5333 14.2667 12.6666C14.2667 12.8666 14.2 12.9999 14.0667 13.1333C13.9333 13.2666 13.8 13.3333 13.6 13.3333H2.33333C2.26666 13.3333 2.13333 13.3333 2.06666 13.2666C1.73333 13.0666 1.6 12.6666 1.8 12.3333ZM8.66665 8.66661V5.99994C8.66665 5.59994 8.39999 5.33328 7.99999 5.33328C7.59999 5.33328 7.33332 5.59994 7.33332 5.99994V8.66661C7.33332 9.06661 7.59999 9.33328 7.99999 9.33328C8.39999 9.33328 8.66665 9.06661 8.66665 8.66661ZM7.99999 11.9999C8.36818 11.9999 8.66665 11.7015 8.66665 11.3333C8.66665 10.9651 8.36818 10.6666 7.99999 10.6666C7.6318 10.6666 7.33332 10.9651 7.33332 11.3333C7.33332 11.7015 7.6318 11.9999 7.99999 11.9999Z" fill="white"/>
</mask>
<g mask="url(#mask0)">
<path fill-rule="evenodd" clip-rule="evenodd" d="M0 0H16V16H0V0Z" fill="#666666"/>
</g>
</svg>
